<?xml version="1.0" encoding="UTF-8"?>
<svg xmlns="http://www.w3.org/2000/svg" xmlns:xlink="http://www.w3.org/1999/xlink" xmlns:svgjs="http://svgjs.com/svgjs" version="1.1" width="512" height="512" x="0" y="0" viewBox="0 0 512 512" style="enable-background:new 0 0 512 512" xml:space="preserve" class="">
  <g>
<path xmlns="http://www.w3.org/2000/svg" style="" d="M356.142,494.748H155.858c-2.761,0-5-2.239-5-5v-26.85c0-2.761,2.239-5,5-5h200.284  c2.761,0,5,2.239,5,5v26.85C361.142,492.509,358.903,494.748,356.142,494.748z" fill="#e6eaee" data-original="#e6eaee" class=""/>
<path xmlns="http://www.w3.org/2000/svg" style="" d="M356.142,494.748h-23.23v-36.85h23.23c2.761,0,5,2.239,5,5v26.85  C361.142,492.509,358.903,494.748,356.142,494.748z" fill="#cdd3d9" data-original="#cdd3d9"/>
<rect xmlns="http://www.w3.org/2000/svg" x="220.92" y="399.93" style="" width="70.17" height="57.971" fill="#e6eaee" data-original="#e6eaee" class=""/>
<rect xmlns="http://www.w3.org/2000/svg" x="262.47" y="399.93" style="" width="28.61" height="57.971" fill="#cdd3d9" data-original="#cdd3d9"/>
<path xmlns="http://www.w3.org/2000/svg" style="" d="M477.544,399.463H34.456c-19.028,0-34.453-15.425-34.453-34.453V79.452  c0-19.028,15.425-34.453,34.453-34.453h443.088c19.028,0,34.453,15.425,34.453,34.453V365.01  C511.997,384.038,496.572,399.463,477.544,399.463z" fill="#e6eaee" data-original="#e6eaee" class=""/>
<path xmlns="http://www.w3.org/2000/svg" style="" d="M512,362.365v1.587c0,19.606-15.905,35.511-35.521,35.511H35.521C15.905,399.464,0,383.559,0,363.953  v-1.587h512V362.365z" fill="#5c6d7d" data-original="#5c6d7d"/>
<path xmlns="http://www.w3.org/2000/svg" style="" d="M512,362.365v1.587c0,19.606-15.905,35.511-35.521,35.511h-54.354  c19.616,0,35.522-15.905,35.522-35.511v-1.587L512,362.365L512,362.365z" fill="#53616d" data-original="#53616d"/>
<path xmlns="http://www.w3.org/2000/svg" style="" d="M474.577,221.98V99.338c0-3.08-2.308-5.576-5.154-5.576H42.577c-2.846,0-5.154,2.497-5.154,5.576  v220.61c0,3.08,2.308,5.576,5.154,5.576h426.847c2.846,0,5.154-2.497,5.154-5.576v-38.853L474.577,221.98L474.577,221.98z" fill="#34d6c1" data-original="#34d6c1" class=""/>
<path xmlns="http://www.w3.org/2000/svg" style="" d="M474.582,99.338v220.613c0,3.082-2.309,5.577-5.154,5.577h-27.306c2.845,0,5.154-2.495,5.154-5.577  V99.338c0-3.082-2.309-5.577-5.154-5.577h27.306C472.273,93.762,474.582,96.256,474.582,99.338z" fill="#1ac4ae" data-original="#1ac4ae"/>
<g xmlns="http://www.w3.org/2000/svg">
	<path style="" d="M48.12,77.56c-0.49,0-0.98-0.05-1.46-0.149c-0.48-0.091-0.95-0.24-1.41-0.42   c-0.45-0.19-0.89-0.421-1.29-0.69c-0.41-0.28-0.8-0.59-1.14-0.94c-0.35-0.34-0.66-0.729-0.93-1.14c-0.27-0.4-0.51-0.84-0.69-1.29   c-0.19-0.45-0.33-0.93-0.43-1.399c-0.1-0.49-0.15-0.98-0.15-1.471s0.05-0.979,0.15-1.46c0.1-0.479,0.24-0.96,0.43-1.41   c0.18-0.449,0.42-0.89,0.69-1.29c0.27-0.409,0.58-0.8,0.93-1.14c0.34-0.35,0.73-0.66,1.14-0.94c0.4-0.27,0.84-0.5,1.29-0.68   c0.46-0.189,0.93-0.34,1.41-0.43c0.96-0.2,1.96-0.2,2.93,0c0.47,0.09,0.95,0.24,1.4,0.43c0.45,0.18,0.89,0.41,1.29,0.68   c0.41,0.28,0.8,0.591,1.14,0.94c0.35,0.34,0.66,0.73,0.94,1.14c0.27,0.4,0.5,0.841,0.69,1.29c0.18,0.45,0.33,0.931,0.43,1.41   c0.09,0.48,0.14,0.97,0.14,1.46s-0.05,0.98-0.14,1.471c-0.1,0.47-0.25,0.949-0.43,1.399c-0.19,0.45-0.42,0.89-0.69,1.29   c-0.28,0.41-0.59,0.8-0.94,1.14c-0.34,0.351-0.72,0.66-1.14,0.94c-0.4,0.27-0.84,0.5-1.29,0.69c-0.45,0.18-0.93,0.329-1.4,0.42   C49.1,77.51,48.61,77.56,48.12,77.56z" fill="#34d6c1" data-original="#34d6c1" class=""/>
	<path style="" d="M78.36,77.56c-1.98,0-3.91-0.8-5.3-2.2c-0.35-0.34-0.66-0.729-0.94-1.14   c-0.27-0.4-0.5-0.84-0.69-1.29c-0.18-0.45-0.33-0.93-0.42-1.399c-0.1-0.49-0.15-0.98-0.15-1.471s0.05-0.979,0.15-1.46   c0.09-0.479,0.24-0.96,0.42-1.41c0.19-0.449,0.42-0.89,0.69-1.29c0.28-0.409,0.59-0.8,0.94-1.14c1.74-1.74,4.33-2.54,6.76-2.05   c0.48,0.09,0.95,0.24,1.41,0.43c0.45,0.18,0.89,0.41,1.29,0.68c0.41,0.28,0.8,0.591,1.14,0.94c0.35,0.34,0.66,0.73,0.93,1.14   c0.28,0.4,0.51,0.841,0.69,1.29c0.19,0.45,0.34,0.931,0.43,1.41c0.1,0.48,0.15,0.97,0.15,1.46s-0.05,0.98-0.15,1.471   c-0.09,0.47-0.24,0.949-0.43,1.399c-0.18,0.45-0.41,0.89-0.69,1.29c-0.27,0.41-0.58,0.8-0.93,1.14c-0.34,0.351-0.73,0.66-1.14,0.94   c-0.4,0.27-0.84,0.5-1.29,0.69c-0.46,0.18-0.93,0.329-1.41,0.42C79.34,77.51,78.85,77.56,78.36,77.56z" fill="#34d6c1" data-original="#34d6c1" class=""/>
	<path style="" d="M108.59,77.56c-1.97,0-3.9-0.8-5.3-2.2c-0.34-0.34-0.66-0.729-0.93-1.14   c-0.27-0.4-0.5-0.84-0.69-1.29s-0.33-0.93-0.43-1.399c-0.09-0.49-0.14-0.98-0.14-1.471s0.05-0.979,0.14-1.46   c0.1-0.479,0.24-0.96,0.43-1.41c0.19-0.449,0.42-0.89,0.69-1.29c0.27-0.409,0.59-0.8,0.93-1.14c1.74-1.74,4.33-2.55,6.77-2.05   c0.48,0.09,0.95,0.24,1.4,0.43c0.46,0.18,0.89,0.41,1.3,0.68c0.41,0.28,0.79,0.591,1.14,0.94c0.34,0.34,0.66,0.73,0.93,1.14   c0.27,0.4,0.5,0.841,0.69,1.29c0.19,0.45,0.33,0.931,0.43,1.41c0.1,0.48,0.15,0.97,0.15,1.46s-0.05,0.98-0.15,1.471   c-0.1,0.47-0.24,0.949-0.43,1.399c-0.19,0.45-0.42,0.89-0.69,1.29c-0.27,0.41-0.59,0.8-0.93,1.14c-0.35,0.351-0.73,0.66-1.14,0.94   c-0.41,0.27-0.84,0.5-1.3,0.69c-0.45,0.18-0.92,0.329-1.4,0.42C109.58,77.51,109.08,77.56,108.59,77.56z" fill="#34d6c1" data-original="#34d6c1" class=""/>
</g>
<path xmlns="http://www.w3.org/2000/svg" style="" d="M355.191,325.532h-93.803V22.257c0-2.761,2.239-5,5-5h83.803c2.761,0,5,2.239,5,5V325.532z" fill="#436a76" data-original="#ffd071" class=""/>
<path xmlns="http://www.w3.org/2000/svg" style="" d="M355.186,22.406v303.128h-19.41V22.406c0-2.845-2.299-5.154-5.154-5.154h19.41  C352.887,17.252,355.186,19.561,355.186,22.406z" fill="#11f5c0" data-original="#f7b657" class=""/>
<g xmlns="http://www.w3.org/2000/svg">
	<path style="" d="M355.19,38.15v15h-21.45c-4.14,0-7.5-3.36-7.5-7.5s3.36-7.5,7.5-7.5H355.19z" fill="#ff6e5e" data-original="#ff6e5e" class=""/>
	<path style="" d="M355.19,63.3v15h-21.45c-4.14,0-7.5-3.36-7.5-7.5s3.36-7.5,7.5-7.5   C333.74,63.3,355.19,63.3,355.19,63.3z" fill="#ff6e5e" data-original="#ff6e5e" class=""/>
	<path style="" d="M355.19,88.45v15h-21.45c-4.14,0-7.5-3.36-7.5-7.5c0-4.15,3.36-7.5,7.5-7.5H355.19z" fill="#ff6e5e" data-original="#ff6e5e" class=""/>
	<path style="" d="M355.19,113.6v15h-21.45c-4.14,0-7.5-3.36-7.5-7.5c0-4.15,3.36-7.5,7.5-7.5   C333.74,113.6,355.19,113.6,355.19,113.6z" fill="#ff6e5e" data-original="#ff6e5e" class=""/>
	<path style="" d="M355.19,138.75v15h-21.45c-4.14,0-7.5-3.36-7.5-7.5c0-4.15,3.36-7.5,7.5-7.5H355.19z" fill="#ff6e5e" data-original="#ff6e5e" class=""/>
	<path style="" d="M355.19,163.89v15h-21.45c-4.14,0-7.5-3.35-7.5-7.5c0-4.14,3.36-7.5,7.5-7.5H355.19z" fill="#ff6e5e" data-original="#ff6e5e" class=""/>
	<path style="" d="M355.19,189.04v15h-21.45c-4.14,0-7.5-3.35-7.5-7.5c0-4.14,3.36-7.5,7.5-7.5H355.19z" fill="#ff6e5e" data-original="#ff6e5e" class=""/>
	<path style="" d="M355.19,214.19v15h-21.45c-4.14,0-7.5-3.36-7.5-7.5s3.36-7.5,7.5-7.5H355.19z" fill="#ff6e5e" data-original="#ff6e5e" class=""/>
	<path style="" d="M355.19,239.34v15h-21.45c-4.14,0-7.5-3.36-7.5-7.5s3.36-7.5,7.5-7.5H355.19z" fill="#ff6e5e" data-original="#ff6e5e" class=""/>
	<path style="" d="M355.19,264.49v15h-21.45c-4.14,0-7.5-3.36-7.5-7.5s3.36-7.5,7.5-7.5H355.19z" fill="#ff6e5e" data-original="#ff6e5e" class=""/>
	<path style="" d="M355.19,289.64v15h-21.45c-4.14,0-7.5-3.36-7.5-7.5s3.36-7.5,7.5-7.5H355.19z" fill="#ff6e5e" data-original="#ff6e5e" class=""/>
	<rect x="156.81" y="301.11" style="" width="75.64" height="24.42" fill="#ff6e5e" data-original="#ff6e5e" class=""/>
</g>
<rect xmlns="http://www.w3.org/2000/svg" x="217.28" y="301.11" style="" width="15.16" height="24.423" fill="#f4584d" data-original="#f4584d"/>
<rect xmlns="http://www.w3.org/2000/svg" x="156.81" y="91.78" style="" width="75.64" height="209.33" fill="#436a76" data-original="#ffd071" class=""/>
<g xmlns="http://www.w3.org/2000/svg">
	<polygon style="" points="232.442,301.112 232.446,91.778 217.633,91.778 217.637,301.112  " fill="#11f5c0" data-original="#f7b657" class=""/>
	<polygon style="" points="217.633,301.118 217.637,301.112 156.81,301.112  " fill="#11f5c0" data-original="#f7b657" class=""/>
</g>
<rect xmlns="http://www.w3.org/2000/svg" x="183.89" y="91.78" style="" width="21.478" height="209.33" fill="#ff6e5e" data-original="#ff6e5e" class=""/>
<path xmlns="http://www.w3.org/2000/svg" style="" d="M156.809,91.78l33.31-60.081c1.963-3.54,7.053-3.54,9.015,0l33.31,60.081H156.809z" fill="#e6eaee" data-original="#e6eaee" class=""/>
<path xmlns="http://www.w3.org/2000/svg" style="" d="M232.446,91.778l-33.311-60.076c-1.963-3.54-7.053-3.539-9.015,0.001l-0.816,1.472l32.489,58.602  L232.446,91.778L232.446,91.778z" fill="#cdd3d9" data-original="#cdd3d9"/>
<path xmlns="http://www.w3.org/2000/svg" style="" d="M175.718,57.675h37.818L199.134,31.7c-1.963-3.54-7.053-3.54-9.015,0L175.718,57.675z" fill="#5c6d7d" data-original="#5c6d7d"/>















</g>
</svg>
