<svg height="512pt" viewBox="0 -11 512.001 512" width="512pt" xmlns="http://www.w3.org/2000/svg"><path d="m245 0c-39 0-75.863281 9.128906-108.597656 25.34375l-76.601563 380.058594c30.648438 35.351562 71.253907 61.832031 117.445313 75.097656l132.117187.941406c104.082031-28.269531 180.636719-123.40625 180.636719-236.441406 0-135.308594-109.691406-245-245-245zm0 0" fill="#06daf7"/><path d="m245 490c23.554688 0 46.328125-3.332031 67.882812-9.535156-3.117187-4.421875-5.09375-9.160156-5.777343-16.226563l-4.105469-59c-14.519531 0-105.386719 0-120 0l-4.105469 59c-.632812 6.542969-2.382812 11.085938-5.109375 15.234375 22.539063 6.835938 46.445313 10.527344 71.214844 10.527344zm0 0" fill="#b7dbf6"/><path d="m199.183594 439.34375h87.589844c8.574218 0 16.027343 5.042969 19.464843 12.402344l-3.238281-46.507813c-14.519531 0-105.386719 0-120 0l-3.230469 46.386719c3.464844-7.292969 10.886719-12.28125 19.414063-12.28125zm0 0" fill="#97cbef"/><path d="m492.273438 24.238281h-353.644532c-28.980468 13.988281-54.78125 33.519531-76.035156 57.210938l-51.414062 236.855469c3.113281 9.929687 6.828124 19.59375 11.121093 28.933593h489.699219v-303.277343c0-10.847657-8.875-19.722657-19.726562-19.722657zm0 0" fill="#122894"/><path d="m61.074219 88.453125-49.894531 229.851563c3.113281 9.929687 6.828124 19.59375 11.121093 28.933593h38.773438zm0 0" fill="#012481"/><path d="m61.433594 407.238281h430.84375c10.847656 0 19.722656-8.875 19.722656-19.726562v-40.273438h-489.699219c10.089844 21.941407 23.328125 42.128907 39.132813 60zm0 0" fill="#e8f3fc"/><path d="m61.074219 387.511719v-40.273438h-38.773438c10.089844 21.941407 23.328125 42.128907 39.132813 60h19.363281c-10.847656 0-19.722656-8.875-19.722656-19.726562zm0 0" fill="#b7dbf6"/><path d="m0 245c0 26.234375 4.140625 51.496094 11.773438 75.191406h471.6875c.851562 0 1.539062-.691406 1.539062-1.539062v-240.667969h-419.226562c-40.796876 43.761719-65.773438 102.46875-65.773438 167.015625zm0 0" fill="#e8f3fc"/><path d="m61.074219 83.191406c-38.003907 43.15625-61.074219 99.78125-61.074219 161.808594 0 26.234375 4.140625 51.496094 11.773438 75.191406h49.296874v-237zm0 0" fill="#b7dbf6"/><path d="m256.5 377.238281c0 7.453125-6.042969 13.5-13.5 13.5s-13.5-6.046875-13.5-13.5c0-7.457031 6.042969-13.5 13.5-13.5s13.5 6.042969 13.5 13.5zm0 0" fill="#b7dbf6"/><path d="m324.925781 320.191406h158.535157c.851562 0 1.539062-.691406 1.539062-1.539062v-240.667969h-160.074219zm0 0" fill="#5488e2"/><path d="m324.925781 320.191406h68.351563c.367187 0 .664062-.691406.664062-1.539062v-240.667969h-69.015625zm0 0" fill="#406bcc"/><path d="m324.925781 77.984375h28.75v242.207031h-28.75zm0 0" fill="#1d3ba8"/><path d="m324.925781 77.984375h28.75v26h-28.75zm0 0" fill="#284cb2"/><path d="m44.640625 103.984375h280.285156v-26h-259.152343c-7.617188 8.167969-14.683594 16.851563-21.132813 26zm0 0" fill="#5488e2"/><path d="m61.074219 103.984375v-20.804687c-5.839844 6.628906-11.332031 13.566406-16.433594 20.804687zm0 0" fill="#406bcc"/><path d="m324.925781 103.984375h28.75v26h-28.75zm0 0" fill="#1d3ba8"/><path d="m324.925781 129.984375h28.75v26h-28.75zm0 0" fill="#284cb2"/><path d="m324.925781 155.984375h28.75v26h-28.75zm0 0" fill="#1d3ba8"/><path d="m324.925781 181.984375h28.75v26h-28.75zm0 0" fill="#284cb2"/><path d="m365.195312 185.984375h28.746094v26h-28.746094zm0 0" fill="#284cb2"/><path d="m393.941406 185.984375h79.539063v26h-79.539063zm0 0" fill="#1d3ba8"/><path d="m324.925781 233.984375h28.75v26h-28.75zm0 0" fill="#284cb2"/><path d="m365.195312 94.820312h108.285157v91.164063h-108.285157zm0 0" fill="#06daf7"/><path d="m365.195312 94.820312h28.746094v91.164063h-28.746094zm0 0" fill="#05b8e2"/><path d="m324.925781 207.984375h28.75v26h-28.75zm0 0" fill="#1d3ba8"/><g fill="#406bcc"><path d="m372.988281 243.484375h89.332031c4.144532 0 7.5-3.355469 7.5-7.5s-3.355468-7.5-7.5-7.5c-20.285156 0-70.164062 0-89.332031 0-4.140625 0-7.5 3.355469-7.5 7.5 0 4.140625 3.359375 7.5 7.5 7.5zm0 0"/><path d="m462.320312 258.933594c-19.914062 0-69.214843 0-89.332031 0-4.140625 0-7.5 3.355468-7.5 7.5 0 4.140625 3.359375 7.5 7.5 7.5h89.332031c4.144532 0 7.5-3.359375 7.5-7.5 0-4.144532-3.355468-7.5-7.5-7.5zm0 0"/><path d="m462.320312 289.382812c-29.011718 0-54.789062 0-89.332031 0-4.140625 0-7.5 3.355469-7.5 7.5 0 4.140626 3.359375 7.5 7.5 7.5h89.332031c4.144532 0 7.5-3.359374 7.5-7.5 0-4.144531-3.355468-7.5-7.5-7.5zm0 0"/></g><path d="m387.238281 235.984375c0-4.144531 3.359375-7.5 7.5-7.5-8.753906 0-16.433593 0-21.75 0-4.140625 0-7.5 3.355469-7.5 7.5s3.359375 7.5 7.5 7.5h21.75c-4.140625 0-7.5-3.359375-7.5-7.5zm0 0" fill="#284cb2"/><path d="m387.238281 266.433594c0-4.144532 3.359375-7.5 7.5-7.5-8.621093 0-16.273437 0-21.75 0-4.140625 0-7.5 3.355468-7.5 7.5 0 4.140625 3.359375 7.5 7.5 7.5h21.75c-4.140625 0-7.5-3.359375-7.5-7.5zm0 0" fill="#284cb2"/><path d="m387.238281 296.882812c0-4.144531 3.359375-7.5 7.5-7.5-6.914062 0-14.105469 0-21.75 0-4.140625 0-7.5 3.355469-7.5 7.5 0 4.140626 3.359375 7.5 7.5 7.5h21.75c-4.140625 0-7.5-3.359374-7.5-7.5zm0 0" fill="#284cb2"/><path d="m217.074219 215.085938c0 43.078124-34.921875 78-78 78s-78-34.921876-78-78c0-43.078126 34.921875-78 78-78s78 34.921874 78 78zm0 0" fill="#fce275"/><path d="m483.460938 51.238281h-388.390626c-11.199218 8.675781-21.628906 18.292969-31.160156 28.746094h421.089844v-27.207031c0-.851563-.6875-1.539063-1.539062-1.539063zm0 0" fill="#1d3ba8"/><path d="m139.074219 215.085938h78v78h-78zm0 0" fill="#f4b500"/><path d="m139.074219 293.085938h154.5625c.792969 0 1.4375-.640626 1.4375-1.433594v-151.101563c0-1.277343-1.546875-1.917969-2.453125-1.015625zm0 0" fill="#ef4a8a"/><path d="m139.074219 293.085938h78v-78zm0 0" fill="#e5387f"/><path d="m139.074219 215.085938s-50.546875-14.542969-29.808594-72.085938c-28.285156 11.707031-48.191406 39.570312-48.191406 72.085938 0 43.078124 34.921875 78 78 78zm0 0" fill="#f9ce00"/></svg>