<svg height="512pt" viewBox="-11 0 512 512" width="512pt" xmlns="http://www.w3.org/2000/svg"><path d="m245 22c-135.308594 0-245 109.691406-245 245 0 124.675781 93.125 227.597656 213.609375 243.007812h62.78125c120.484375-15.414062 213.609375-118.332031 213.609375-243.007812 0-135.308594-109.691406-245-245-245zm0 0" fill="#ef4a8a"/><path d="m225.917969 19.082031h-156.355469c-4.800781 0-8.691406 3.890625-8.691406 8.691407 0 4.800781 3.890625 8.691406 8.691406 8.691406h156.355469zm0 0" fill="#fe99b8"/><path d="m225.917969 19.082031h-156.355469c-4.800781 0-8.691406 3.890625-8.691406 8.691407 0 4.800781 3.890625 8.691406 8.691406 8.691406h156.355469zm0 0" fill="#fe99b8"/><path d="m228.449219 398.109375h-36.515625c8.304687 25.28125 12.929687 51.621094 13.734375 78.21875l.984375 32.679687c12.496094 1.960938 25.300781 2.992188 38.347656 2.992188s25.851562-1.03125 38.347656-2.996094l.988282-32.679687c.800781-26.59375 5.425781-52.933594 13.734374-78.214844zm0 0" fill="#284cb2"/><path d="m242.890625 488.960938c1.347656-2.15625 2.109375-4.625 2.109375-7.167969v-42.941407c0-2.109374-.492188-4.203124-1.480469-6.070312-12.367187-23.476562 11.117188-33.011719 11.117188-33.011719l.0625-1.65625h-62.765625c8.304687 25.277344 12.929687 51.617188 13.734375 78.214844l.984375 32.679687c12.023437 1.890626 24.332031 2.902344 36.867187 2.980469-6.933593-9.84375-3.339843-18.679687-.628906-23.027343zm0 0" fill="#1d3ba8"/><path d="m37.269531 217.730469h33.378907v33.378906h-33.378907zm0 0" fill="#e8f3fc"/><path d="m419.351562 217.730469h33.378907v33.378906h-33.378907zm0 0" fill="#e8f3fc"/><path d="m225.917969 19.996094c-100.078125 9.53125-178.855469 93.21875-180.609375 195.34375h17.386718c1.738282-92.535156 72.742188-168.421875 163.222657-177.875zm0 0" fill="#fe99b8"/><path d="m138.226562 50.105469c7.414063.425781 12.035157 8.164062 9.003907 14.867187 23.207031-14.800781 49.960937-24.507812 78.6875-27.507812v-17.46875c-32.023438 3.050781-61.855469 13.703125-87.691407 30.109375zm0 0" fill="#fc7ba7"/><path d="m264.078125 19.996094v17.46875c90.480469 9.449218 161.484375 85.339844 163.226563 177.871094h17.382812c-1.75-102.121094-80.527344-185.808594-180.609375-195.339844zm0 0" fill="#fe99b8"/><path d="m422.644531 127.609375c-.714843 7.476563-8.957031 11.714844-15.457031 7.945313 12.375 24.007812 19.578125 51.09375 20.117188 79.785156h17.382812c-.539062-31.554688-8.441406-61.339844-22.042969-87.730469zm0 0" fill="#fc7ba7"/><path d="m134.703125 19.082031c4.800781 0 8.691406 3.890625 8.691406 8.691407 0 4.800781-3.890625 8.691406-8.691406 8.691406h91.214844v-17.382813zm0 0" fill="#fc7ba7"/><path d="m420.4375 19.082031h-156.359375v17.382813h156.359375c4.800781 0 8.691406-3.890625 8.691406-8.691406 0-4.800782-3.890625-8.691407-8.691406-8.691407zm0 0" fill="#fe99b8"/><path d="m330.714844 250.398438c-17.488282-22.03125-58.429688-78.710938-65.949219-135.195313-1.328125-9.972656-9.707031-17.484375-19.765625-17.484375s-18.4375 7.511719-19.765625 17.484375c-7.519531 56.484375-48.460937 113.164063-65.949219 135.195313-4.855468 6.113281-6.109375 14.335937-3.3125 21.625l26.058594 67.886718h125.9375l26.058594-67.886718c2.796875-7.289063 1.542968-15.511719-3.3125-21.625zm0 0" fill="#e8f3fc"/><path d="m255.199219 304.425781-39.1875-67.875c-28.988281-5.339843-24.3125-33.339843-24.3125-33.339843-12.105469 20.570312-24.601563 37.34375-32.417969 47.1875-4.851562 6.113281-6.105469 14.335937-3.308594 21.625l26.058594 67.886718h70.386719c-13.351563-17.3125 2.78125-35.484375 2.78125-35.484375zm0 0" fill="#b7dbf6"/><path d="m245 241.890625c-4.800781 0-8.691406-3.894531-8.691406-8.691406v-128.523438c0-4.804687 3.890625-8.695312 8.691406-8.695312s8.691406 3.894531 8.691406 8.695312v128.523438c0 4.800781-3.890625 8.691406-8.691406 8.691406zm0 0" fill="#97cbef"/><path d="m449.09375 262.191406h-26.105469c-8.117187 0-14.71875-6.601562-14.71875-14.722656v-26.101562c0-8.117188 6.601563-14.722657 14.71875-14.722657h26.105469c8.117188 0 14.722656 6.605469 14.722656 14.722657v26.101562c-.003906 8.121094-6.605468 14.722656-14.722656 14.722656zm-23.441406-17.382812h20.777344v-20.777344h-20.777344zm23.441406-20.777344h.011719zm0 0" fill="#fc7ba7"/><path d="m67.011719 262.191406h-26.105469c-8.117188 0-14.71875-6.601562-14.71875-14.722656v-26.101562c0-8.117188 6.601562-14.722657 14.71875-14.722657h26.105469c8.117187 0 14.71875 6.605469 14.71875 14.722657v26.101562c0 8.121094-6.601563 14.722656-14.71875 14.722656zm-23.441407-17.382812h20.777344v-20.777344h-20.777344zm23.441407-20.777344h.007812zm0 0" fill="#fc7ba7"/><path d="m53.960938 8.691406c-10.539063 0-19.082032 8.542969-19.082032 19.082032 0 10.539062 8.542969 19.082031 19.078125 19.082031h.003907c10.535156 0 19.078124-8.542969 19.078124-19.082031 0-10.539063-8.542968-19.082032-19.078124-19.082032zm0 0" fill="#ef4a8a"/><path d="m280.207031 244.726562c-11.226562-19.449218-36.097656-26.113281-55.546875-14.882812-19.449218 11.226562-26.109375 36.097656-14.882812 55.546875 11.230468 19.449219 36.097656 26.113281 55.546875 14.882813 19.449219-11.230469 26.113281-36.097657 14.882812-55.546876zm0 0" fill="#b7dbf6"/><path d="m245 486.117188c-6.402344 0-11.589844-5.1875-11.589844-11.589844v-27.5625c0-6.402344 5.1875-11.59375 11.589844-11.59375s11.589844 5.191406 11.589844 11.59375v27.5625c0 6.402344-5.1875 11.589844-11.589844 11.589844zm0 0" fill="#406bcc"/><path d="m251.617188 276.523438-13.234376-22.917969c-7.292968 4.207031-16.617187 1.710937-20.828124-5.582031-2.085938-3.617188-2.519532-7.730469-1.542969-11.472657-12.511719 12.707031-15.578125 32.652344-6.226563 48.84375 9.351563 16.195313 28.15625 23.515625 45.414063 19.03125-3.730469-1.023437-7.074219-3.457031-9.164063-7.074219-4.210937-7.289062-1.710937-16.617187 5.582032-20.828124zm0 0" fill="#97cbef"/><path d="m258.199219 257.433594c-4.210938-7.292969-13.535157-9.789063-20.828125-5.578125-7.292969 4.207031-9.792969 13.535156-5.582032 20.824219 4.210938 7.292968 13.535157 9.792968 20.828126 5.582031 7.292968-4.210938 9.789062-13.535157 5.582031-20.828125zm0 0" fill="#60b4e2"/><path d="m228.3125 11.085938h33.375v33.375h-33.375zm0 0" fill="#e8f3fc"/><path d="m258.050781 55.546875h-26.101562c-8.121094 0-14.722657-6.605469-14.722657-14.722656v-26.101563c0-8.117187 6.605469-14.722656 14.722657-14.722656h26.101562c8.117188 0 14.722657 6.605469 14.722657 14.722656v26.101563c0 8.117187-6.605469 14.722656-14.722657 14.722656zm-23.441406-17.386719h20.777344v-20.773437h-20.777344zm23.441406-20.773437h.011719zm0 0" fill="#fc7ba7"/><path d="m337.914062 19.082031c4.800782 0 8.691407 3.890625 8.691407 8.691407 0 4.800781-3.890625 8.691406-8.691407 8.691406h91.214844v-17.382813zm0 0" fill="#fc7ba7"/><path d="m436.042969 8.691406c-10.539063 0-19.082031 8.542969-19.082031 19.082032 0 10.539062 8.542968 19.082031 19.078124 19.082031h.003907c10.535156 0 19.078125-8.542969 19.078125-19.082031 0-10.539063-8.542969-19.082032-19.078125-19.082032zm0 0" fill="#ef4a8a"/><path d="m174.160156 365.886719 9.234375 26.730469c1.476563 4.28125 5.507813 7.152343 10.035157 7.152343h103.140624c4.527344 0 8.558594-2.871093 10.035157-7.152343l9.234375-26.730469zm0 0" fill="#406bcc"/><path d="m249.617188 392.617188-4.617188-26.730469h-70.839844l9.234375 26.730469c1.476563 4.28125 5.507813 7.152343 10.035157 7.152343h61.207031c-2.265625 0-4.28125-2.871093-5.019531-7.152343zm0 0" fill="#284cb2"/><path d="m314.746094 369.277344h-139.492188c-8.421875 0-15.246094-6.828125-15.246094-15.25 0-8.417969 6.824219-15.246094 15.246094-15.246094h139.492188c8.421875 0 15.246094 6.828125 15.246094 15.246094 0 8.421875-6.824219 15.25-15.246094 15.25zm0 0" fill="#5488e2"/><path d="m230.847656 354.027344c0-8.421875 6.824219-15.246094 15.246094-15.246094h-70.839844c-8.421875 0-15.25 6.824219-15.25 15.246094s6.828125 15.246094 15.25 15.246094h70.839844c-8.417969.003906-15.246094-6.824219-15.246094-15.246094zm0 0" fill="#406bcc"/></svg>